<svg width="552" height="579" viewBox="0 0 552 579" fill="none" xmlns="http://www.w3.org/2000/svg">
<path d="M209.793 549.827C180.482 561.054 150.882 566.222 119.298 559.678C84.0953 552.38 53.5397 519.684 36.263 487.093C29.8438 474.988 24.7302 461.464 25.3855 447.536C26.9103 415.358 54.9453 411.797 78.7494 417.031C92.1679 419.975 104.492 426.653 116.676 433.267C136.905 444.255 160.628 449.676 178.768 464.894C184.855 470.016 189.429 476.165 196.5 479.894C207.5 485.7 220.053 488.45 231.35 493.735C240.996 498.27 251.78 505.723 251.803 517.109C251.814 528.786 240.585 536.214 230.716 540.85C223.731 544.154 216.776 547.165 209.793 549.827Z" fill="url(#paint0_linear)" fill-opacity="0.5"/>
<path d="M101.841 134.765C149.806 58.0702 249.092 27.376 329.614 56.3349C368.442 70.3063 400.997 99.3383 431.026 129.471C457.495 156.029 483.177 184.671 501.267 218.793C513.618 242.085 522.468 269.997 528.722 296.052C538.073 335.065 529.65 385.307 483.157 381.567C472.249 380.691 462.809 376.425 452.604 372.691C444.35 369.664 436.265 371.463 427.696 369.979C406.129 366.249 385.347 357.613 365.694 347.504C325.643 326.883 289.039 298.889 247.852 280.81C214.099 266.015 178.06 258.352 141.679 258.237C126.331 258.19 110.194 259.335 96.4585 251.876C62.6044 233.473 77.7814 183.984 90.3967 156.149C93.7388 148.735 97.5632 141.589 101.841 134.765Z" fill="url(#paint1_linear)" fill-opacity="0.5"/>
<path d="M478.588 146.741C486.5 154.513 517.577 175.742 518.154 150.876C518.29 144.681 515.693 138.663 512.162 134.122C508.122 128.91 503.545 126.173 500.389 120.102C496.527 112.772 492.132 105.882 487.261 99.5215C477.303 86.2825 465.679 74.0472 451.584 68.5847C441.697 64.7579 424.965 65.6964 420.282 79.4225C413.458 99.4038 442.707 103.103 451.632 110.399C460.101 117.305 464.905 129.159 471.618 138.584C473.739 141.555 476.072 144.286 478.588 146.741Z" fill="url(#paint2_linear)" fill-opacity="0.5"/>
<path d="M332.075 122.222C348.83 132.934 361.405 148.953 376.683 161.86C402.121 183.346 436.966 187.778 466.129 202.735C495.865 217.995 518.329 241.68 528.505 275.79C541.65 319.818 542.939 372.159 531.838 417.392C519.612 467.182 490.833 500.23 448.734 522.241C406.659 544.238 360.038 554.47 313.533 556.535C309.045 556.738 304.565 556.845 300.067 556.87C199.034 557.38 64.5222 518.65 30.029 400.918C29.7128 399.842 29.4098 398.767 29.1058 397.676C25.5508 384.56 23.4558 371.032 22.8656 357.382C20.6626 308.992 28.4292 255.593 44.0371 210.252C54.5347 179.726 77.1723 153.932 101.033 135.563C134.558 109.757 175.483 103.212 216.219 100.162C246.383 97.9043 280.31 97.1081 308.847 109.656C316.867 113.21 324.631 117.411 332.075 122.222Z" fill="url(#paint3_linear)" fill-opacity="0.5"/>
<path fill-rule="evenodd" clip-rule="evenodd" d="M276.721 91.4943C284.6 96.2403 292.341 98.5335 295.975 97.5974C305.087 95.25 305.925 61.9351 298.874 48.8013C291.824 35.6676 255.579 29.943 253.752 55.9652C253.118 64.9967 256.913 73.0567 262.519 79.6335L252.467 126.46H281.667L276.721 91.4943Z" fill="#915B3C"/>
<path fill-rule="evenodd" clip-rule="evenodd" d="M287.341 34.4969C283.351 33.2809 277.559 32.8685 275.122 33.1475C276.508 29.8286 277.058 26.131 276.61 22.5307C276.174 19.0324 274.61 16.0536 273.163 12.9323C272.496 11.4935 271.741 10.0626 270.614 8.96214C269.466 7.84099 268.014 7.10093 266.49 6.74786C264.931 6.38646 263.301 6.41655 261.74 6.74453C261.049 6.8896 260.429 7.20523 259.752 7.38068C259.058 7.56045 258.722 7.12652 258.218 6.69042C257.005 5.63964 255.226 5.12092 253.691 4.93527C251.968 4.72707 250.181 4.98673 248.538 5.5526C246.94 6.10348 245.404 6.99801 244.248 8.30119C243.733 8.88128 243.266 9.54154 242.962 10.2705C242.838 10.5697 242.817 10.7469 242.518 10.8565C242.242 10.9579 241.919 10.9609 241.634 11.0574C238.877 11.9906 236.52 14.1194 235.237 16.8527C234.488 18.4473 234.133 21.2548 234.23 24.4016C234.328 27.5483 237.171 35.7592 239.83 38.7541C242.203 41.4273 245.692 43.1914 249.059 43.9636C246.824 46.5165 245.336 49.7067 244.236 52.9511C243.041 56.4755 242.302 60.1374 242.029 63.8686C241.769 67.4136 241.745 71.1625 242.577 74.6318C243.355 77.8762 245.018 80.5377 247.796 82.2262C249.068 82.9997 250.436 83.5808 251.813 84.1118C253.17 84.6352 254.53 85.144 255.952 85.4377C258.641 85.9932 261.74 85.8979 263.812 83.7583C264.559 82.987 265.38 82.0177 265.925 81.0755C266.121 80.7366 266.239 80.515 266.001 80.1838C265.716 79.7871 265.255 79.4831 264.888 79.1728C262.8 77.4034 261.507 75.0413 261.181 72.2342C260.85 69.386 261.616 65.7098 264.387 64.4668C267.807 62.9324 271.574 64.6936 274.613 66.3353C275.905 61.7782 278.558 57.6749 282.717 55.5846C287.318 53.272 292.598 53.0013 297.327 51.0171C298.559 50.5001 299.814 49.9131 300.721 48.8596C301.1 48.4193 301.545 47.8481 301.696 47.2658C301.895 46.5008 301.401 45.8595 301.02 45.2631C298.998 42.1011 291.331 35.7128 287.341 34.4969Z" fill="#191847"/>
<path fill-rule="evenodd" clip-rule="evenodd" d="M245.167 227.385L335.573 378.44L403.351 506.145H417.95L304.386 227.385L245.167 227.385Z" fill="#784931"/>
<path fill-rule="evenodd" clip-rule="evenodd" d="M397.366 498.698C396.299 498.218 395.026 498.694 394.621 499.792C393.726 502.212 392.383 506.208 392.383 508.401C392.383 511.69 393.48 518 393.48 518C397.298 518 462.102 518 462.102 518C462.102 518 464.777 509.162 459.014 508.457C453.251 507.753 449.439 507.185 449.439 507.185L417.34 492.883C416.826 492.654 416.223 492.895 416.009 493.415L413.874 498.592C413.874 498.592 408.538 501.079 405.203 501.079C403.034 501.079 399.543 499.678 397.366 498.698Z" fill="#E4E4E4"/>
<path fill-rule="evenodd" clip-rule="evenodd" d="M384.527 485.695L412.681 477.184C412.681 477.184 394.179 421.904 367.327 355.516C340.474 289.129 309.65 227.385 309.65 227.385H230.134C230.134 227.385 264.404 305.488 302.795 369.318C341.187 433.149 384.527 485.695 384.527 485.695Z" fill="#1F28CF"/>
<path fill-rule="evenodd" clip-rule="evenodd" d="M239.225 227.385C230.693 280.467 214.235 348.285 212.682 350.378C211.647 351.773 174.372 364.256 100.858 387.827L104.011 400.694C191.677 388.052 237.869 378.245 242.588 371.271C249.667 360.81 285.011 278.167 298.7 227.385H239.225Z" fill="#915B3C"/>
<path fill-rule="evenodd" clip-rule="evenodd" d="M126.699 376.706L132.254 397.428C197.823 403.175 237.998 399.022 252.78 384.969C267.562 370.916 284.41 318.388 303.322 227.385H227.498C215.516 301.904 208.817 340.727 207.402 343.856C205.986 346.984 179.085 357.934 126.699 376.706Z" fill="#2B44FF"/>
<path fill-rule="evenodd" clip-rule="evenodd" d="M106.496 385.095C106.785 383.96 106.094 382.789 104.942 382.58C102.401 382.12 98.2314 381.493 96.071 381.873C92.83 382.444 86.8026 384.619 86.8026 384.619C87.4655 388.377 98.7187 452.16 98.7187 452.16C98.7187 452.16 107.892 453.258 107.585 447.463C107.279 441.669 107.177 437.818 107.177 437.818L115.695 403.743C115.832 403.197 115.49 402.645 114.939 402.524L109.468 401.322C109.468 401.322 106.091 396.503 105.511 393.22C105.135 391.086 105.908 387.409 106.496 385.095Z" fill="#E4E4E4"/>
<path fill-rule="evenodd" clip-rule="evenodd" d="M349.007 128.515L306.776 151.631L322.371 168.359L353.057 140.28C369.222 135.827 376.614 132.57 375.234 130.508C374.07 128.77 372.193 128.83 370.465 128.886C369.118 128.929 367.861 128.97 367.101 128.155C365.366 126.293 368.677 119.785 372.083 113.743C375.489 107.701 371.847 108.227 369.764 109.096C362.948 113.707 356.029 120.18 349.007 128.515ZM391.467 160.95L372.917 171.134L373.973 189.739C373.973 189.739 385.987 181.073 396.323 178.192C409.503 174.52 414.835 171.715 421.275 163.514C424.721 159.126 427.645 150.305 424.365 147.433C423.107 146.331 418.419 148.934 413.636 151.59C409.991 153.615 406.29 155.67 404.01 156.139C400.941 156.771 401.3 152.795 401.588 149.618C401.794 147.338 401.962 145.469 400.801 146.009C395.371 146.102 391.467 160.95 391.467 160.95Z" fill="#915B3C"/>
<path fill-rule="evenodd" clip-rule="evenodd" d="M286.21 146.481C301.002 146.325 320.726 143.203 341.773 129.851L350.038 148.273C335.521 162.672 315.108 174.502 297.26 174.001C283.194 173.607 276.005 156.603 286.21 146.481Z" fill="#128E5A"/>
<path fill-rule="evenodd" clip-rule="evenodd" d="M246.316 272.69C232.254 270.858 219.332 269.174 211.675 270.681C203.084 242.795 210.218 225.238 216.804 209.03C220.773 199.261 224.543 189.983 224.551 179.229C224.574 147.912 249.735 99.709 253.436 99.709H254.499H283.836H287.195C288.704 119.088 295.146 140.07 301.629 161.188C303.143 166.119 304.659 171.058 306.115 175.985C330.649 181.551 385.127 162.177 385.127 162.177C385.127 162.177 398.88 190.613 397.842 202.722C366.133 219.276 338.955 226.656 316.565 227.144C317.276 240.422 315.659 253.056 310.227 264.601C302.948 280.069 272.634 276.119 246.316 272.69Z" fill="#128E5A"/>
<defs>
<linearGradient id="paint0_linear" x1="22.7865" y1="451.974" x2="57.9758" y2="565.085" gradientUnits="userSpaceOnUse">
<stop stop-color="#2B44FF"/>
<stop offset="1" stop-color="#FFEEEE"/>
</linearGradient>
<linearGradient id="paint1_linear" x1="591.01" y1="146.558" x2="247.766" y2="73.7293" gradientUnits="userSpaceOnUse">
<stop stop-color="#2B44FF"/>
<stop offset="1" stop-color="#FFCECE"/>
</linearGradient>
<linearGradient id="paint2_linear" x1="518.96" y1="150.441" x2="399.32" y2="103.38" gradientUnits="userSpaceOnUse">
<stop stop-color="#2B44FF"/>
<stop offset="1" stop-color="#FFFBFC"/>
</linearGradient>
<linearGradient id="paint3_linear" x1="492.598" y1="507.105" x2="4.25342" y2="246.528" gradientUnits="userSpaceOnUse">
<stop stop-color="#2B44FF" stop-opacity="0.6"/>
<stop offset="1" stop-color="#FFF3F3"/>
</linearGradient>
</defs>
</svg>
