<svg width="501" height="535" viewBox="0 0 501 535" fill="none" xmlns="http://www.w3.org/2000/svg">
<path d="M190.607 509.558C163.984 519.584 137.099 524.197 108.413 518.354C76.4388 511.838 48.686 482.644 32.9942 453.545C27.1638 442.737 22.5193 430.662 23.1144 418.225C24.4993 389.495 49.9627 386.315 71.5833 390.988C83.7708 393.617 94.9646 399.579 106.031 405.485C124.405 415.296 145.951 420.136 162.428 433.724C167.956 438.297 172.11 443.788 178.533 447.117C188.524 452.301 199.925 454.756 210.186 459.475C218.947 463.525 228.742 470.18 228.763 480.346C228.773 490.772 218.573 497.404 209.61 501.544C203.266 504.493 196.949 507.182 190.607 509.558Z" fill="url(#paint0_linear)" fill-opacity="0.5"/>
<path d="M92.5563 138.959C136.121 70.48 226.3 43.0739 299.436 68.9307C334.702 81.4054 364.271 107.327 391.545 134.232C415.587 157.946 438.913 183.519 455.343 213.986C466.561 234.782 474.599 259.704 480.28 282.969C488.773 317.803 481.123 362.663 438.895 359.323C428.987 358.541 420.413 354.732 411.144 351.398C403.647 348.695 396.304 350.302 388.521 348.977C368.932 345.646 350.057 337.935 332.206 328.909C295.829 310.497 262.583 285.501 225.174 269.36C194.517 256.149 161.784 249.308 128.74 249.204C114.8 249.163 100.143 250.185 87.6678 243.524C56.9191 227.093 70.7039 182.905 82.162 158.053C85.1976 151.433 88.6711 145.052 92.5563 138.959Z" fill="url(#paint1_linear)" fill-opacity="0.5"/>
<path d="M434.744 149.653C441.93 156.592 470.156 175.546 470.68 153.344C470.804 147.813 468.446 142.44 465.238 138.385C461.569 133.731 457.411 131.287 454.545 125.867C451.037 119.322 447.045 113.171 442.621 107.491C433.577 95.6706 423.019 84.7459 410.217 79.8686C401.237 76.4517 386.04 77.2897 381.786 89.5454C375.589 107.386 402.154 110.689 410.26 117.203C417.953 123.37 422.316 133.954 428.413 142.369C430.34 145.022 432.459 147.461 434.744 149.653Z" fill="url(#paint2_linear)" fill-opacity="0.5"/>
<path d="M301.671 127.76C316.889 137.325 328.311 151.627 342.188 163.152C365.292 182.336 396.941 186.294 423.429 199.648C450.438 213.273 470.841 234.422 480.083 264.878C492.023 304.189 493.193 350.923 483.11 391.311C472.006 435.767 445.867 465.275 407.63 484.928C369.414 504.569 327.07 513.704 284.83 515.548C280.754 515.729 276.685 515.825 272.599 515.848C180.835 516.303 58.6615 481.722 27.3323 376.601C27.0452 375.641 26.7699 374.681 26.4939 373.707C23.2649 361.995 21.3621 349.917 20.826 337.729C18.8252 294.523 25.8793 246.844 40.0555 206.36C49.5902 179.104 70.1512 156.073 91.8235 139.672C122.273 116.631 159.444 110.786 196.443 108.063C223.84 106.047 254.655 105.336 280.574 116.54C287.859 119.713 294.911 123.464 301.671 127.76Z" fill="url(#paint3_linear)" fill-opacity="0.5"/>
<path fill-rule="evenodd" clip-rule="evenodd" d="M257.964 88.3149C265.562 92.8961 273.028 95.1095 276.532 94.2059C285.32 91.9401 286.127 59.7829 279.328 47.1056C272.529 34.4282 237.575 28.9026 235.813 54.0205C235.202 62.7381 238.861 70.5181 244.268 76.8663L234.573 122.066H262.733L257.964 88.3149Z" fill="#B28B67"/>
<path fill-rule="evenodd" clip-rule="evenodd" d="M259.372 56.7945C261.808 53.1665 264.146 50.3992 267.188 48.7922C279.568 48.9879 281.018 46.7678 281.018 39.2852C279.018 37.8539 271.963 35.4439 264.062 34.7659C260.031 33.6121 255.256 33.8291 250.657 35.7538C244.978 37.3653 240.171 40.836 238.047 47.3337C230.364 60.5974 236.195 74.4046 244.054 79.1211C246.146 76.6419 247.972 74.2392 249.601 71.9392C248.292 70.6605 247.48 68.8758 247.48 66.9014C247.48 63.0121 250.632 59.8592 254.52 59.8592C254.806 59.8592 255.088 59.8762 255.365 59.9093C255.54 64.772 256.259 81.2238 258.151 86.9384C260.381 93.6756 273.392 95.3298 277.929 95.3298C281.849 95.3298 281.715 91.6171 281.62 88.9563C281.606 88.5731 281.593 88.2118 281.593 87.8864C281.593 87.2067 280.709 87.2085 279.71 87.2104C278.414 87.213 276.924 87.216 276.924 85.7278C276.924 84.1055 279.165 82.8612 281.17 81.7477C282.421 81.053 283.581 80.4093 284.047 79.7564C285.518 77.6969 286.013 74.9191 283.794 74.9191C282.581 74.9191 280.917 75.6186 278.915 76.4601C275.892 77.7306 272.1 79.3248 267.926 79.3248C261.032 79.3248 259.392 57.0736 259.372 56.7945Z" fill="#11103F"/>
<path fill-rule="evenodd" clip-rule="evenodd" d="M225.187 219.484L267.726 368.811L298.763 478.873H321.4L288.419 219.484H225.187Z" fill="#11103F"/>
<path fill-rule="evenodd" clip-rule="evenodd" d="M213.81 219.484C212.826 296.449 209.471 338.427 208.438 345.42C207.405 352.413 191.784 396.897 161.576 478.873H185.027C223.484 400.231 244.952 355.747 249.431 345.42C253.909 335.093 267.73 293.115 288.547 219.484H213.81Z" fill="#2F3676"/>
<path fill-rule="evenodd" clip-rule="evenodd" d="M159.48 500L160.653 475.352L185.293 475.352C202.819 487.676 231.053 495.305 231.053 495.305V500H186.467L171.213 497.653V500H159.48Z" fill="#11103F"/>
<path fill-rule="evenodd" clip-rule="evenodd" d="M295.587 500L296.76 475.352L321.4 475.352C338.925 487.676 367.16 495.305 367.16 495.305V500H322.573L307.32 497.653V500H295.587Z" fill="#11103F"/>
<path fill-rule="evenodd" clip-rule="evenodd" d="M134.094 262.07C138.47 255.639 163.783 187.249 163.783 187.249L184.565 190.268C184.565 190.268 151.103 262.89 148.687 267.082C145.547 272.527 148.324 281.469 150.207 287.533C150.498 288.471 150.768 289.34 150.992 290.117C147.036 291.259 145.532 288.995 143.945 286.607C142.154 283.91 140.258 281.057 134.609 282.779C132.427 283.444 130.33 284.299 128.281 285.134C121.205 288.018 114.705 290.667 107.239 284.472C106.055 283.49 105.058 280.278 108.821 278.407C118.193 273.745 131.955 265.214 134.094 262.07ZM359.587 230.284L324.168 200.247L314.488 220.078L350.388 238.001C359.986 251.019 365.475 256.55 366.855 254.594C368.019 252.945 367.316 251.275 366.668 249.738C366.164 248.54 365.693 247.422 366.165 246.456C367.242 244.249 374.249 244.979 380.869 245.957C387.489 246.935 385.757 243.836 384.254 242.261C377.745 237.718 369.522 233.725 359.587 230.284Z" fill="#B28B67"/>
<path fill-rule="evenodd" clip-rule="evenodd" d="M250.642 102.502L263.519 98.2425C280.987 141.893 307.039 184.127 350.566 219.801L339.802 238.377C301.548 215.835 265.336 198.325 250.642 164.501C245.71 153.149 250.24 116.076 250.642 102.502Z" fill="#128E5A"/>
<path fill-rule="evenodd" clip-rule="evenodd" d="M206.413 225.352C206.413 225.352 261.745 231.221 293.517 225.352C296.141 224.867 296.555 220.472 295.338 217.489C276.387 171.038 263.391 130.507 263.391 98.2426C258.175 100.873 245.133 99.031 245.133 99.031C221.768 132.28 211.028 170.43 206.413 225.352Z" fill="#F2F2F2"/>
<path fill-rule="evenodd" clip-rule="evenodd" d="M238.437 96.2442C239.04 95.8376 239.359 95.6354 239.359 95.6354L239.325 96.2442H249.062C249.551 99.1228 250.268 109.792 251.313 125.35C255.111 181.884 263.245 302.966 280.557 349.303H161.105C163.626 296.622 183.042 233.623 203.156 180.13C188.314 194.901 170.98 219.663 156.971 260.883L134.597 255.138C157.398 156.852 224.203 106.164 237.166 97.1172C237.293 96.8246 237.418 96.5336 237.544 96.2442H238.437Z" fill="#128E5A"/>
<defs>
<linearGradient id="paint0_linear" x1="20.7538" y1="422.188" x2="51.733" y2="523.483" gradientUnits="userSpaceOnUse">
<stop stop-color="#2B44FF"/>
<stop offset="1" stop-color="#FFF2F2"/>
</linearGradient>
<linearGradient id="paint1_linear" x1="75.6884" y1="75.8567" x2="455.466" y2="346.129" gradientUnits="userSpaceOnUse">
<stop stop-color="#2B44FF"/>
<stop offset="1" stop-color="white"/>
</linearGradient>
<linearGradient id="paint2_linear" x1="471.413" y1="152.956" x2="363.251" y2="109.677" gradientUnits="userSpaceOnUse">
<stop stop-color="#2B44FF"/>
<stop offset="1" stop-color="#FFF5F5"/>
</linearGradient>
<linearGradient id="paint3_linear" x1="447.47" y1="471.413" x2="7.31355" y2="232.5" gradientUnits="userSpaceOnUse">
<stop stop-color="#2B44FF" stop-opacity="0.49"/>
<stop offset="1" stop-color="#FFF4F4"/>
</linearGradient>
</defs>
</svg>
