<svg width="474" height="588" viewBox="0 0 474 588" fill="none" xmlns="http://www.w3.org/2000/svg">
<path d="M179.851 562.205C154.666 572.412 129.233 577.11 102.095 571.161C71.848 564.526 45.5938 534.802 30.7493 505.175C25.2338 494.17 20.84 481.876 21.403 469.213C22.7132 439.961 46.8015 436.724 67.2547 441.482C78.7841 444.158 89.3734 450.229 99.8425 456.242C117.224 466.231 137.607 471.159 153.193 484.994C158.424 489.65 162.353 495.24 168.429 498.63C177.881 503.908 188.666 506.408 198.373 511.213C206.661 515.335 215.927 522.111 215.947 532.462C215.956 543.078 206.308 549.83 197.828 554.045C191.826 557.048 185.851 559.785 179.851 562.205Z" fill="url(#paint0_linear)" fill-opacity="0.5"/>
<path d="M87.0966 184.876C128.309 115.154 213.618 87.2503 282.805 113.577C316.167 126.278 344.139 152.671 369.94 180.064C392.684 204.208 414.75 230.246 430.293 261.266C440.906 282.44 448.51 307.814 453.884 331.501C461.918 366.967 454.681 412.642 414.733 409.242C405.36 408.445 397.249 404.568 388.481 401.173C381.389 398.421 374.442 400.057 367.08 398.708C348.548 395.317 330.692 387.466 313.806 378.276C279.393 359.529 247.942 334.08 212.553 317.645C183.551 304.195 152.586 297.229 121.327 297.124C108.139 297.081 94.2738 298.122 82.4721 291.341C53.3838 274.611 66.4242 229.621 77.2636 204.317C80.1352 197.577 83.4212 191.08 87.0966 184.876Z" fill="url(#paint1_linear)" fill-opacity="0.5"/>
<path d="M410.804 195.764C417.602 202.829 444.304 222.127 444.8 199.522C444.917 193.891 442.686 188.42 439.652 184.291C436.18 179.553 432.247 177.065 429.535 171.546C426.217 164.883 422.441 158.619 418.255 152.837C409.7 140.801 399.712 129.678 387.601 124.712C379.106 121.233 364.73 122.087 360.706 134.565C354.843 152.73 379.974 156.092 387.642 162.725C394.92 169.003 399.047 179.78 404.815 188.348C406.638 191.049 408.642 193.532 410.804 195.764Z" fill="url(#paint2_linear)" fill-opacity="0.5"/>
<path d="M284.918 173.474C299.314 183.212 310.119 197.774 323.246 209.508C345.103 229.041 375.043 233.07 400.101 246.667C425.651 260.54 444.952 282.072 453.695 313.081C464.99 353.106 466.098 400.689 456.559 441.81C446.054 487.074 421.327 517.117 385.154 537.127C349.003 557.124 308.944 566.426 268.986 568.303C265.13 568.488 261.281 568.585 257.416 568.608C170.606 569.072 55.03 533.863 25.3925 426.833C25.1209 425.855 24.8605 424.878 24.5993 423.886C21.5447 411.962 19.7447 399.664 19.2375 387.256C17.3447 343.264 24.0179 294.72 37.4286 253.5C46.4484 225.75 65.8992 202.301 86.4012 185.602C115.206 162.142 150.37 156.192 185.371 153.419C211.289 151.367 240.44 150.643 264.96 162.05C271.851 165.281 278.522 169.1 284.918 173.474Z" fill="url(#paint3_linear)" fill-opacity="0.5"/>
<path fill-rule="evenodd" clip-rule="evenodd" d="M213.122 106.985C205.491 112.947 197.689 116.333 193.769 115.823C183.939 114.545 178.796 79.9031 184.487 65.2984C190.178 50.6938 227.35 40.0686 232.593 66.9768C234.413 76.3157 231.477 85.2101 226.456 92.79L242.966 140.342L212.429 144.092L213.122 106.985Z" fill="#B28B67"/>
<path fill-rule="evenodd" clip-rule="evenodd" d="M207.413 73.1112C204.291 69.5151 201.388 66.8361 197.876 65.5046C184.477 67.3644 182.61 65.1584 181.618 57.0725C183.596 55.2596 190.927 51.7159 199.405 49.9313C203.623 48.1478 208.83 47.7465 214.073 49.2139C220.444 50.1993 226.118 53.3096 229.284 60.0483C239.375 73.3582 234.883 89.0549 226.987 95.1981C224.389 92.7976 222.091 90.4443 220.019 88.1758C221.268 86.6197 221.912 84.5831 221.651 82.4495C221.134 78.2466 217.298 75.2592 213.082 75.7769C212.772 75.8149 212.468 75.8709 212.173 75.9436C212.628 81.2216 214.03 99.0953 212.737 105.522C211.213 113.1 197.323 116.62 192.402 117.224C188.152 117.746 187.804 113.716 187.555 110.828C187.519 110.412 187.485 110.02 187.442 109.668C187.352 108.934 188.311 108.818 189.394 108.687C190.8 108.517 192.417 108.322 192.219 106.714C192.004 104.961 189.409 103.915 187.086 102.978C185.637 102.394 184.295 101.853 183.702 101.21C181.834 99.1799 180.928 96.2441 183.334 95.9486C184.65 95.7871 186.547 96.3214 188.83 96.9642C192.276 97.9347 196.601 99.1524 201.127 98.5967C208.603 97.6787 207.429 73.4159 207.413 73.1112Z" fill="#191847"/>
<path fill-rule="evenodd" clip-rule="evenodd" d="M264.494 247.91L217.535 409.209L195.448 530.315H173.28L195.409 247.91H264.494Z" fill="#997659"/>
<path fill-rule="evenodd" clip-rule="evenodd" d="M285.597 247.91C282.321 331.704 283.613 377.407 284.346 385.021C285.08 392.634 289.243 443.621 317.613 532.87H294.555C256.984 447.251 243.869 396.263 239.56 385.021C235.25 373.778 222.524 328.074 203.943 247.91H285.597Z" fill="#B28B67"/>
<path fill-rule="evenodd" clip-rule="evenodd" d="M265.502 247.91C253.287 303.413 232.161 392.011 202.123 513.703H169.699C167.304 388.798 177.492 306.589 195.135 247.91H265.502Z" fill="#69A1AC"/>
<path fill-rule="evenodd" clip-rule="evenodd" d="M285.761 247.91C282.552 331.704 290.869 414.257 316.63 515.007H282.035C244.395 430.665 217.417 348.52 198.979 247.91H285.761Z" fill="#89C5CC"/>
<path fill-rule="evenodd" clip-rule="evenodd" d="M320.899 549.483L319.705 530.285C319.665 529.645 319.042 529.208 318.417 529.35C307.282 531.889 291.638 526.481 291.638 526.481C275.773 537.683 252.702 542.65 245.515 543.985C244.331 544.205 243.585 545.395 243.914 546.554L245.838 553.316H291.638H318.355L320.899 549.483Z" fill="#191847"/>
<path fill-rule="evenodd" clip-rule="evenodd" d="M200.397 549.483L199.202 530.285C199.162 529.645 198.54 529.208 197.915 529.35C186.779 531.889 171.135 526.481 171.135 526.481C155.271 537.683 132.2 542.65 125.013 543.985C123.829 544.205 123.082 545.395 123.412 546.554L125.335 553.316H171.135H197.852L200.397 549.483Z" fill="#191847"/>
<path fill-rule="evenodd" clip-rule="evenodd" d="M119.269 276.081L156.208 241.389L167.895 262.395L129.743 283.943C120.011 298.649 114.336 304.978 112.719 302.93C111.355 301.204 112.028 299.348 112.647 297.639C113.129 296.308 113.579 295.065 113.01 294.042C111.71 291.704 104.106 292.901 96.9385 294.344C89.7713 295.787 91.4858 292.319 93.0358 290.52C99.8804 285.206 108.625 280.393 119.269 276.081ZM338.543 302.294C333.889 295.212 312.168 223.28 312.168 223.28L285.591 226.649C285.591 226.649 319.948 302.871 322.506 307.479C325.829 313.464 322.622 323.148 320.447 329.714C320.11 330.73 319.798 331.671 319.539 332.512C323.838 333.83 325.525 331.392 327.305 328.823C329.314 325.92 331.441 322.849 337.578 324.829C339.949 325.594 342.222 326.563 344.444 327.51C352.117 330.781 359.166 333.786 367.442 327.181C368.754 326.134 369.906 322.656 365.833 320.549C355.685 315.299 340.819 305.757 338.543 302.294Z" fill="#B28B67"/>
<path fill-rule="evenodd" clip-rule="evenodd" d="M222.949 121.341L211.715 120.811C175.209 160.976 166.734 230.566 121.088 272.484L134.959 285.886C220.45 264.514 231.852 179.5 222.949 121.341Z" fill="#128E5A"/>
<path fill-rule="evenodd" clip-rule="evenodd" d="M287.834 253.279C287.834 253.279 221.66 261.404 190.482 265.232C186.034 265.778 186.086 259.272 186.332 255.962C189.175 217.762 213.211 174.008 206.693 120.928L234.235 113.091C262.034 147.475 275.695 192.334 287.834 253.279Z" fill="#DDE3E9"/>
<path fill-rule="evenodd" clip-rule="evenodd" d="M302.051 278.569C307.712 288.507 313.125 297.12 318.03 303.644L338.908 301.08C332.265 228.407 297.928 176.075 270.791 145.311C275.856 144.32 280.206 141.622 282.478 136.021C290.475 116.3 285.52 106.591 274.141 104.597C267.884 103.5 262.365 105.451 255.759 107.786C250.354 109.696 244.22 111.864 236.358 112.83C236.355 112.831 236.352 112.831 236.35 112.831C235.588 112.925 234.901 113.061 234.283 113.235L225.031 114.91C225.031 114.91 202.891 247.365 225.103 288.017L302.051 278.569Z" fill="#128E5A"/>
<path fill-rule="evenodd" clip-rule="evenodd" d="M302.051 278.569C294.623 265.531 286.767 250.212 279.067 234.341C279.199 252.844 277.937 271.599 273.291 282.101L302.051 278.569Z" fill="black" fill-opacity="0.1"/>
<defs>
<linearGradient id="paint0_linear" x1="19.1699" y1="473.249" x2="52.6637" y2="575.004" gradientUnits="userSpaceOnUse">
<stop stop-color="#2B44FF"/>
<stop offset="1" stop-color="#FFF1F1"/>
</linearGradient>
<linearGradient id="paint1_linear" x1="407.641" y1="228.452" x2="124.933" y2="114.323" gradientUnits="userSpaceOnUse">
<stop stop-color="#2B44FF"/>
<stop offset="1" stop-color="#FFDDDD"/>
</linearGradient>
<linearGradient id="paint2_linear" x1="445.492" y1="199.127" x2="361.41" y2="144.164" gradientUnits="userSpaceOnUse">
<stop stop-color="#2B44FF"/>
<stop offset="1" stop-color="#FFFBFC"/>
</linearGradient>
<linearGradient id="paint3_linear" x1="422.844" y1="523.367" x2="-6.91657" y2="306.629" gradientUnits="userSpaceOnUse">
<stop stop-color="#2B44FF" stop-opacity="0.53"/>
<stop offset="1" stop-color="#FFF5F5"/>
</linearGradient>
</defs>
</svg>
