<svg width="502" height="566" viewBox="0 0 502 566" fill="none" xmlns="http://www.w3.org/2000/svg">
<g filter="url(#filter0_d)">
<path d="M190.812 484.63C164.166 494.669 137.256 499.289 108.544 493.438C76.5412 486.913 48.7633 457.68 33.0573 428.541C27.2217 417.718 22.5729 405.627 23.1686 393.173C24.5548 364.404 50.0412 361.22 71.6813 365.9C83.8798 368.532 95.0837 374.502 106.16 380.416C124.55 390.24 146.116 395.087 162.608 408.693C168.141 413.272 172.299 418.77 178.727 422.105C188.727 427.295 200.139 429.754 210.409 434.479C219.178 438.534 228.981 445.198 229.003 455.378C229.013 465.818 218.804 472.459 209.833 476.604C203.483 479.558 197.16 482.25 190.812 484.63Z" fill="url(#paint0_linear)" fill-opacity="0.5"/>
<path d="M92.6735 113.528C136.278 44.956 226.538 17.5126 299.74 43.4045C335.038 55.8962 364.633 81.8534 391.932 108.795C415.996 132.541 439.343 158.149 455.788 188.657C467.016 209.482 475.061 234.437 480.747 257.733C489.248 292.614 481.591 337.535 439.325 334.191C429.408 333.408 420.826 329.594 411.549 326.256C404.045 323.549 396.695 325.158 388.906 323.831C369.299 320.496 350.406 312.775 332.54 303.736C296.13 285.299 262.854 260.27 225.411 244.106C194.726 230.877 161.964 224.027 128.89 223.923C114.937 223.882 100.267 224.905 87.7806 218.236C57.0042 201.782 70.8015 157.534 82.2699 132.648C85.3082 126.019 88.7848 119.629 92.6735 113.528Z" fill="url(#paint1_linear)" fill-opacity="0.5"/>
<path d="M435.169 124.236C442.362 131.185 470.614 150.165 471.139 127.933C471.262 122.394 468.902 117.013 465.692 112.953C462.019 108.293 457.858 105.846 454.988 100.418C451.477 93.8647 447.482 87.7045 443.054 82.0175C434.001 70.1807 423.434 59.2412 410.62 54.3573C401.633 50.9358 386.421 51.7749 382.164 64.0472C375.961 81.9122 402.55 85.2195 410.664 91.7427C418.364 97.9172 422.73 108.516 428.833 116.942C430.761 119.599 432.883 122.041 435.169 124.236Z" fill="url(#paint2_linear)" fill-opacity="0.5"/>
<path d="M301.977 102.313C317.209 111.891 328.641 126.213 342.53 137.753C365.655 156.964 397.333 160.927 423.845 174.299C450.877 187.943 471.299 209.12 480.55 239.617C492.5 278.982 493.672 325.78 483.58 366.222C472.465 410.739 446.303 440.286 408.031 459.966C369.781 479.633 327.398 488.781 285.121 490.628C281.041 490.81 276.968 490.905 272.879 490.928C181.031 491.384 58.7477 456.756 27.3902 351.493C27.1028 350.531 26.8273 349.569 26.551 348.594C23.3191 336.867 21.4146 324.772 20.878 312.568C18.8754 269.303 25.9359 221.559 40.1248 181.02C49.6682 153.727 70.2477 130.665 91.9396 114.242C122.417 91.169 159.621 85.3168 196.654 82.5895C224.076 80.5712 254.918 79.8593 280.861 91.0781C288.152 94.2559 295.21 98.0115 301.977 102.313Z" fill="url(#paint3_linear)" fill-opacity="0.5"/>
<path fill-rule="evenodd" clip-rule="evenodd" d="M246.268 106.778C238.48 111.798 230.827 114.224 227.234 113.234C218.226 110.751 217.398 75.512 224.368 61.6197C231.338 47.7275 267.169 41.6724 268.976 69.1973C269.602 78.7504 265.851 87.2759 260.309 94.2325L270.247 143.763H241.379L246.268 106.778Z" fill="#B28B67"/>
<path fill-rule="evenodd" clip-rule="evenodd" d="M240.821 45.608C244.626 44.9409 254.87 44.4822 256.759 44.4825C257.967 44.4825 259.275 44.7774 259.99 43.592C260.576 42.6213 260.361 40.9796 260.536 39.8532C260.739 38.5446 261.027 37.2529 261.318 35.9645C262.148 32.2981 263.403 28.8101 265.158 25.5352C268.451 19.3913 273.276 14.5786 279.368 11.7782C286.094 8.68607 293.706 7.97803 300.941 8.60522C308.684 9.27624 315.693 12.0095 323.004 14.5816C329.97 17.0326 337.267 17.9974 344.553 16.8005C351.894 15.5946 357.441 11.3399 363.633 7.30168C369.972 3.16749 377.217 0.463579 384.71 1.08514C391.706 1.66555 398.153 4.75413 403.937 8.88003C409.349 12.7403 413.815 17.3847 416.336 23.9214C419.048 30.9528 419.046 38.671 414.585 44.8852C408.121 53.8927 396.12 56.222 386.135 55.9905C380.36 55.8569 374.688 54.7296 369.235 52.6789C361.964 49.9439 355.68 45.3084 348.877 41.5473C345.685 39.7824 342.385 38.3329 338.926 37.2887C335.569 36.2751 332.263 35.8102 329.224 37.9784C326.009 40.2722 323.128 42.5254 319.45 43.9613C315.922 45.3389 312.185 46.1094 308.426 46.0783C301.112 46.0179 293.902 43.5811 286.799 41.9488C281.006 40.618 274.808 39.2917 268.903 40.571C266.439 41.1049 262.839 42.2071 261.949 44.9456C276.929 47.8488 282.813 67.6595 278.59 82.2025C276.31 90.0519 262.609 99.2277 257.282 95.1012C253.907 92.4869 255.956 89.0548 257.282 86.7892C259.821 82.4504 260.69 76.877 255.991 73.8562C251.938 71.2509 247.677 77.4378 247.596 77.431C246.482 77.3372 236.856 71.516 230.225 63.0215C223.682 63.4362 222.69 58.8233 224.252 55.0508C225.814 51.2782 235.565 46.5305 240.821 45.608Z" fill="#191847"/>
<path fill-rule="evenodd" clip-rule="evenodd" d="M282.275 474.313C231.125 474.313 189.659 431.988 189.659 379.778C189.659 327.568 231.125 285.243 282.275 285.243C333.425 285.243 374.89 327.568 374.89 379.778C374.89 431.988 333.425 474.313 282.275 474.313Z" fill="#C5CFD6"/>
<path fill-rule="evenodd" clip-rule="evenodd" d="M138.286 374.737C133.813 391.493 122.668 423.253 107.256 459.727L92.612 455.158C105.424 371.229 116.086 315.663 122.194 298.751C126.229 287.578 156.759 288.887 153.247 311.37C151.774 320.798 145.946 346.045 138.286 374.737ZM198.479 315.291C222.361 320.582 271.878 339.285 286.017 345.262C294.904 349.018 289.175 361.756 281.594 360.642C280.31 360.453 275.768 359.91 268.991 359.099C247.224 356.495 202.395 351.132 168.395 345.9C150.493 343.145 160.123 307.287 178.711 311.081C184.965 312.358 191.616 313.77 198.479 315.291Z" fill="#B28B67"/>
<path fill-rule="evenodd" clip-rule="evenodd" d="M121.258 289.279C123.699 280.759 234.689 250.517 234.689 250.517H243.785V259.58L167.303 301.213C167.404 302.556 167.342 303.976 167.095 305.474C167.648 336.338 155.295 359.395 143.064 382.224C135.066 397.152 127.12 411.983 122.871 428.835L94.7712 424.352C95.5897 422.113 96.884 412.02 98.6537 398.22C103.116 363.424 110.6 305.062 121.1 289.621C121.136 289.567 121.174 289.513 121.212 289.46C121.225 289.4 121.24 289.339 121.258 289.279Z" fill="#1F28CF"/>
<path fill-rule="evenodd" clip-rule="evenodd" d="M237.43 325.939C244.428 324.441 250.873 323.104 256.387 322.07C292.006 315.389 302.393 295.001 296.252 250.517H230.624C219.904 253.81 164.191 278.793 135.285 292.081C116.153 300.876 122.184 332.581 133.018 340.832C133.077 341.338 133.272 341.682 133.619 341.836C174.696 360.041 209.724 358.683 232.218 357.81C241.639 357.445 248.861 357.165 253.408 358.443L260.532 334.412L237.43 325.939Z" fill="#2B44FF"/>
<path fill-rule="evenodd" clip-rule="evenodd" d="M278.533 343.368C278.564 342.2 279.49 341.288 280.609 341.407C283.141 341.675 287.344 342.254 289.315 343.282C292.239 344.807 297.374 348.775 297.374 348.775C295.719 352.402 267.635 413.976 267.635 413.976C267.635 413.976 258.618 412.419 260.489 406.617C262.36 400.814 263.507 396.929 263.507 396.929L264.705 359.729C264.724 359.168 265.175 358.742 265.715 358.778L271.281 359.152C271.281 359.152 275.804 355.237 277.25 352.067C278.209 349.966 278.468 345.882 278.533 343.368Z" fill="#E4E4E4"/>
<path fill-rule="evenodd" clip-rule="evenodd" d="M111.263 451.372C112.355 450.848 113.684 451.343 114.08 452.488C114.964 455.049 116.289 459.27 116.289 461.587C116.289 465.066 115.205 471.74 115.205 471.74C111.43 471.74 47.3645 471.74 47.3645 471.74C47.3645 471.74 44.7202 462.392 50.4175 461.647C56.1149 460.901 59.8833 460.301 59.8833 460.301L91.57 445.195C92.0958 444.945 92.7238 445.195 92.9333 445.738L95.0433 451.211C95.0433 451.211 100.318 453.843 103.615 453.843C105.726 453.843 109.105 452.406 111.263 451.372Z" fill="#E4E4E4"/>
<path fill-rule="evenodd" clip-rule="evenodd" d="M125.629 194.83L169.212 215.297L155.295 234.361L122.654 207.6C106.351 204.398 98.7896 201.647 99.971 199.347C100.967 197.408 102.821 197.299 104.528 197.198C105.858 197.12 107.099 197.047 107.777 196.118C109.326 193.997 105.504 187.444 101.629 181.391C97.7533 175.338 101.386 175.557 103.512 176.281C110.622 180.512 117.994 186.695 125.629 194.83ZM320.764 226.164L345.412 220.934C362.127 268.046 372.093 293.864 375.308 298.386C377.666 301.702 392.207 310.243 402.049 314.805C406 316.636 405.152 320.205 403.993 321.347C396.684 328.551 389.89 326.026 382.494 323.278C380.353 322.482 378.161 321.668 375.892 321.065C370.019 319.505 368.231 322.735 366.542 325.787C365.047 328.489 363.628 331.053 359.519 330.03C359.706 329.167 359.936 328.201 360.183 327.159C361.785 320.419 364.148 310.479 360.643 304.704C358.844 301.74 345.551 275.56 320.764 226.164Z" fill="#B28B67"/>
<path fill-rule="evenodd" clip-rule="evenodd" d="M253.774 122.325L243.374 120.418C220.72 143.916 211.475 200.371 196.378 207.844C182.104 214.909 161.87 208.073 137.819 198.841L130.453 216.439C152.306 241.72 198.862 263.079 217.732 250.885C247.903 231.391 254.868 161.762 253.774 122.325Z" fill="#128E5A"/>
<path fill-rule="evenodd" clip-rule="evenodd" d="M299.114 262.092C299.114 262.092 236.559 262.092 207.086 262.092C202.881 262.092 203.673 255.599 204.281 252.323C211.297 214.508 238.684 173.746 238.684 119.918L265.229 115.467C287.185 153.228 294.778 199.718 299.114 262.092Z" fill="#DDE3E9"/>
<path fill-rule="evenodd" clip-rule="evenodd" d="M266.638 115.467H266.941C326.482 154.701 362.464 215.52 374.89 297.924L355.6 301.964C342.822 286.045 327.053 259.993 308.293 223.807C314.048 245.605 318.251 267.962 319.561 289.102H236.722C220.685 245.765 256.431 115.467 256.431 115.467H262.15H266.638Z" fill="#128E5A"/>
</g>
<defs>
<filter id="filter0_d" x="16.5435" y="0.996399" width="477.862" height="564.918" filterUnits="userSpaceOnUse" color-interpolation-filters="sRGB">
<feFlood flood-opacity="0" result="BackgroundImageFix"/>
<feColorMatrix in="SourceAlpha" type="matrix" values="0 0 0 0 0 0 0 0 0 0 0 0 0 0 0 0 0 0 127 0"/>
<feOffset dy="4"/>
<feGaussianBlur stdDeviation="2"/>
<feColorMatrix type="matrix" values="0 0 0 0 0 0 0 0 0 0 0 0 0 0 0 0 0 0 0.25 0"/>
<feBlend mode="normal" in2="BackgroundImageFix" result="effect1_dropShadow"/>
<feBlend mode="normal" in="SourceGraphic" in2="effect1_dropShadow" result="shape"/>
</filter>
<linearGradient id="paint0_linear" x1="37.8858" y1="369.032" x2="125.86" y2="512.805" gradientUnits="userSpaceOnUse">
<stop stop-color="#2B44FF"/>
<stop offset="1" stop-color="#FFF6F6"/>
</linearGradient>
<linearGradient id="paint1_linear" x1="486.81" y1="200.913" x2="151.805" y2="-3.24778" gradientUnits="userSpaceOnUse">
<stop stop-color="#2B44FF"/>
<stop offset="1" stop-color="#FFD7D7"/>
</linearGradient>
<linearGradient id="paint2_linear" x1="471.871" y1="127.544" x2="363.599" y2="84.2395" gradientUnits="userSpaceOnUse">
<stop stop-color="#2B44FF"/>
<stop offset="1" stop-color="#FFFBFC"/>
</linearGradient>
<linearGradient id="paint3_linear" x1="500.328" y1="370.58" x2="31.7398" y2="195.819" gradientUnits="userSpaceOnUse">
<stop stop-color="#2B44FF" stop-opacity="0.46"/>
<stop offset="1" stop-color="#FFF8F8"/>
</linearGradient>
</defs>
</svg>
