<svg width="43" height="33" viewBox="0 0 43 33" fill="none" xmlns="http://www.w3.org/2000/svg">
<path d="M14.048 32.4394C12.024 32.4394 10.176 32.058 8.504 31.2954C6.832 30.5327 5.40933 29.462 4.236 28.0834C3.06267 26.7047 2.13867 25.0327 1.464 23.0674C0.818667 21.102 0.496 18.9314 0.496 16.5554C0.496 14.2087 0.818667 12.0527 1.464 10.0874C2.13867 8.12202 3.06267 6.45002 4.236 5.07135C5.43867 3.69268 6.876 2.62202 8.548 1.85935C10.22 1.09668 12.0533 0.71535 14.048 0.71535C16.072 0.71535 17.92 1.09668 19.592 1.85935C21.264 2.62202 22.6867 3.69268 23.86 5.07135C25.0333 6.45002 25.9427 8.12202 26.588 10.0874C27.2627 12.0527 27.6 14.2087 27.6 16.5554C27.6 18.9314 27.2773 21.102 26.632 23.0674C25.9867 25.0327 25.0627 26.7047 23.86 28.0834C22.6867 29.462 21.264 30.5327 19.592 31.2954C17.92 32.058 16.072 32.4394 14.048 32.4394ZM14.048 27.2034C16.424 27.2034 18.3013 26.25 19.68 24.3434C21.0587 22.4367 21.748 19.8407 21.748 16.5554C21.748 13.3287 21.044 10.762 19.636 8.85535C18.2573 6.91935 16.3947 5.95135 14.048 5.95135C11.7013 5.95135 9.83867 6.91935 8.46 8.85535C7.08133 10.762 6.392 13.3287 6.392 16.5554C6.392 19.8407 7.08133 22.4367 8.46 24.3434C9.83867 26.25 11.7013 27.2034 14.048 27.2034ZM42.0152 1.19935V31.9994H35.9872V7.31535L29.9592 9.77935V4.54335L38.1872 1.19935H42.0152Z" fill="#2B44FF"/>
</svg>
