<svg width="53" height="33" viewBox="0 0 53 33" fill="none" xmlns="http://www.w3.org/2000/svg">
<path d="M14.3288 32.4402C12.3048 32.4402 10.4568 32.0589 8.78482 31.2962C7.11282 30.5336 5.69016 29.4629 4.51682 28.0842C3.34349 26.7056 2.41949 25.0336 1.74482 23.0682C1.09949 21.1029 0.776822 18.9322 0.776822 16.5562C0.776822 14.2096 1.09949 12.0536 1.74482 10.0882C2.41949 8.12291 3.34349 6.45091 4.51682 5.07224C5.71949 3.69358 7.15682 2.62291 8.82882 1.86024C10.5008 1.09758 12.3342 0.716243 14.3288 0.716243C16.3528 0.716243 18.2008 1.09758 19.8728 1.86024C21.5448 2.62291 22.9675 3.69358 24.1408 5.07224C25.3142 6.45091 26.2235 8.12291 26.8688 10.0882C27.5435 12.0536 27.8808 14.2096 27.8808 16.5562C27.8808 18.9322 27.5582 21.1029 26.9128 23.0682C26.2675 25.0336 25.3435 26.7056 24.1408 28.0842C22.9675 29.4629 21.5448 30.5336 19.8728 31.2962C18.2008 32.0589 16.3528 32.4402 14.3288 32.4402ZM14.3288 27.2042C16.7048 27.2042 18.5822 26.2509 19.9608 24.3442C21.3395 22.4376 22.0288 19.8416 22.0288 16.5562C22.0288 13.3296 21.3248 10.7629 19.9168 8.85624C18.5382 6.92024 16.6755 5.95224 14.3288 5.95224C11.9822 5.95224 10.1195 6.92024 8.74082 8.85624C7.36216 10.7629 6.67282 13.3296 6.67282 16.5562C6.67282 19.8416 7.36216 22.4376 8.74082 24.3442C10.1195 26.2509 11.9822 27.2042 14.3288 27.2042ZM30.0856 32.0002V27.7762L42.2296 16.9082C43.6083 15.6469 44.591 14.5469 45.1776 13.6082C45.7643 12.6402 46.0576 11.6429 46.0576 10.6162C46.0576 9.26691 45.5296 8.15224 44.4736 7.27224C43.4176 6.39224 42.0976 5.95224 40.5136 5.95224C39.047 5.95224 37.6683 6.24558 36.3776 6.83224C35.1163 7.41891 33.7376 8.38691 32.2416 9.73624L28.8536 5.68824C30.643 4.07491 32.535 2.85758 34.5296 2.03624C36.5243 1.21491 38.5776 0.804242 40.6896 0.804242C42.3323 0.804242 43.843 1.03891 45.2216 1.50824C46.6296 1.94824 47.8176 2.57891 48.7856 3.40024C49.783 4.22158 50.5456 5.21891 51.0736 6.39224C51.631 7.56558 51.9096 8.84158 51.9096 10.2202C51.9096 11.9802 51.4696 13.6082 50.5896 15.1042C49.7096 16.6002 48.1843 18.3162 46.0136 20.2522L38.4896 26.9402H52.3056V32.0002H30.0856Z" fill="#1F28CF"/>
</svg>
