<svg width="55" height="33" viewBox="0 0 55 33" fill="none" xmlns="http://www.w3.org/2000/svg">
<path d="M14.048 32.4398C12.024 32.4398 10.176 32.0584 8.504 31.2958C6.832 30.5331 5.40933 29.4624 4.236 28.0838C3.06267 26.7051 2.13867 25.0331 1.464 23.0678C0.818667 21.1024 0.496 18.9318 0.496 16.5558C0.496 14.2091 0.818667 12.0531 1.464 10.0878C2.13867 8.12242 3.06267 6.45042 4.236 5.07175C5.43867 3.69309 6.876 2.62242 8.548 1.85975C10.22 1.09709 12.0533 0.715755 14.048 0.715755C16.072 0.715755 17.92 1.09709 19.592 1.85975C21.264 2.62242 22.6867 3.69309 23.86 5.07175C25.0333 6.45042 25.9427 8.12242 26.588 10.0878C27.2627 12.0531 27.6 14.2091 27.6 16.5558C27.6 18.9318 27.2773 21.1024 26.632 23.0678C25.9867 25.0331 25.0627 26.7051 23.86 28.0838C22.6867 29.4624 21.264 30.5331 19.592 31.2958C17.92 32.0584 16.072 32.4398 14.048 32.4398ZM14.048 27.2038C16.424 27.2038 18.3013 26.2504 19.68 24.3438C21.0587 22.4371 21.748 19.8411 21.748 16.5558C21.748 13.3291 21.044 10.7624 19.636 8.85575C18.2573 6.91976 16.3947 5.95176 14.048 5.95176C11.7013 5.95176 9.83867 6.91976 8.46 8.85575C7.08133 10.7624 6.392 13.3291 6.392 16.5558C6.392 19.8411 7.08133 22.4371 8.46 24.3438C9.83867 26.2504 11.7013 27.2038 14.048 27.2038ZM54.4211 23.4198C54.4211 24.7104 54.1131 25.9131 53.4971 27.0278C52.8811 28.1424 52.0158 29.0958 50.9011 29.8878C49.8158 30.6798 48.5104 31.3104 46.9851 31.7798C45.4891 32.2198 43.8464 32.4398 42.0571 32.4398C39.6811 32.4398 37.4224 32.0144 35.2811 31.1638C33.1398 30.3131 31.3504 29.1398 29.9131 27.6438L33.9611 23.9038C35.1931 25.1358 36.4104 26.0011 37.6131 26.4998C38.8158 26.9984 40.2824 27.2478 42.0131 27.2478C43.8904 27.2478 45.4158 26.8518 46.5891 26.0598C47.7624 25.2678 48.3491 24.2411 48.3491 22.9798C48.3491 21.8358 47.8064 20.9264 46.7211 20.2518C45.6651 19.5771 44.2571 19.2398 42.4971 19.2398H39.6811V14.4438H41.8811C43.4651 14.4438 44.7851 14.0184 45.8411 13.1678C46.8971 12.3171 47.4251 11.2464 47.4251 9.95575C47.4251 8.81175 46.8971 7.85842 45.8411 7.09575C44.8144 6.33309 43.5091 5.95176 41.9251 5.95176C40.4291 5.95176 39.1091 6.23042 37.9651 6.78776C36.8211 7.31576 35.5891 8.23975 34.2691 9.55975L30.1771 5.81975C31.6731 4.23575 33.4771 2.98909 35.5891 2.07976C37.7011 1.17042 39.8864 0.715755 42.1451 0.715755C43.7878 0.715755 45.2984 0.935755 46.6771 1.37575C48.0851 1.78642 49.2878 2.37309 50.2851 3.13576C51.2824 3.89842 52.0598 4.80775 52.6171 5.86375C53.1744 6.91975 53.4531 8.07842 53.4531 9.33975C53.4531 10.8651 53.0424 12.2584 52.2211 13.5198C51.3998 14.7518 50.2851 15.7344 48.8771 16.4678C50.5491 17.0544 51.8838 17.9638 52.8811 19.1958C53.9078 20.4278 54.4211 21.8358 54.4211 23.4198Z" fill="#1F28CF"/>
</svg>
