<svg width="58" height="33" viewBox="0 0 58 33" fill="none" xmlns="http://www.w3.org/2000/svg">
<path d="M14.048 32.3222C12.024 32.3222 10.176 31.9409 8.504 31.1782C6.832 30.4155 5.40933 29.3449 4.236 27.9662C3.06267 26.5875 2.13867 24.9155 1.464 22.9502C0.818667 20.9849 0.496 18.8142 0.496 16.4382C0.496 14.0915 0.818667 11.9355 1.464 9.9702C2.13867 8.00487 3.06267 6.33287 4.236 4.9542C5.43867 3.57553 6.876 2.50487 8.548 1.7422C10.22 0.979534 12.0533 0.598201 14.048 0.598201C16.072 0.598201 17.92 0.979534 19.592 1.7422C21.264 2.50487 22.6867 3.57553 23.86 4.9542C25.0333 6.33287 25.9427 8.00487 26.588 9.9702C27.2627 11.9355 27.6 14.0915 27.6 16.4382C27.6 18.8142 27.2773 20.9849 26.632 22.9502C25.9867 24.9155 25.0627 26.5875 23.86 27.9662C22.6867 29.3449 21.264 30.4155 19.592 31.1782C17.92 31.9409 16.072 32.3222 14.048 32.3222ZM14.048 27.0862C16.424 27.0862 18.3013 26.1329 19.68 24.2262C21.0587 22.3195 21.748 19.7235 21.748 16.4382C21.748 13.2115 21.044 10.6449 19.636 8.7382C18.2573 6.8022 16.3947 5.8342 14.048 5.8342C11.7013 5.8342 9.83867 6.8022 8.46 8.7382C7.08133 10.6449 6.392 13.2115 6.392 16.4382C6.392 19.7235 7.08133 22.3195 8.46 24.2262C9.83867 26.1329 11.7013 27.0862 14.048 27.0862ZM53.7171 1.0822V19.6062H57.5011V24.6662H53.7171V31.8822H47.6891V24.6662H30.3091V19.8262L46.7651 1.0822H53.7171ZM37.2611 19.6062H47.6891V7.7702L37.2611 19.6062Z" fill="#1F28CF"/>
</svg>
